<svg class="animated" id="freepik_stories-construction-crane" xmlns="http://www.w3.org/2000/svg" viewBox="0 0 500 500" version="1.1" xmlns:xlink="http://www.w3.org/1999/xlink" xmlns:svgjs="http://svgjs.com/svgjs"><style>svg#freepik_stories-construction-crane:not(.animated) .animable {opacity: 0;}svg#freepik_stories-construction-crane.animated #freepik--Clouds--inject-54 {animation: 3s Infinite  linear floating;animation-delay: 0s;}            @keyframes floating {                0% {                    opacity: 1;                    transform: translateY(0px);                }                50% {                    transform: translateY(-10px);                }                100% {                    opacity: 1;                    transform: translateY(0px);                }            }        </style><g id="freepik--Floor--inject-54" class="animable" style="transform-origin: 257.655px 468.34px;"><g id="elq4q31wlaymo" class="animable" style="transform-origin: 257.655px 468.34px;"><line x1="462" y1="468.34" x2="494.18" y2="468.34" style="fill: none; stroke: rgb(38, 50, 56); stroke-miterlimit: 10; transform-origin: 478.09px 468.34px;" id="el1k9q9kiy5jw" class="animable"></line><line x1="62.97" y1="468.34" x2="454.76" y2="468.34" style="fill: none; stroke: rgb(38, 50, 56); stroke-miterlimit: 10; transform-origin: 258.865px 468.34px;" id="eldbz3kscusq7" class="animable"></line><line x1="21.13" y1="468.34" x2="58.14" y2="468.34" style="fill: none; stroke: rgb(38, 50, 56); stroke-miterlimit: 10; transform-origin: 39.635px 468.34px;" id="ely4a4qsy9pmm" class="animable"></line></g></g><g id="freepik--City--inject-54" class="animable" style="transform-origin: 260.87px 261.99px;"><g id="elrqnj8qfdvv" class="animable" style="transform-origin: 260.87px 261.99px;"><polyline points="401.66 266.42 401.66 188.38 412.92 188.38 412.92 180.33 446.71 180.33 446.71 186.77 455.56 186.77 455.56 320.32 479.7 320.32 479.7 343.65 494.98 343.65" style="fill: none; stroke: rgb(38, 50, 56); stroke-miterlimit: 10; transform-origin: 448.32px 261.99px;" id="elazlydasywci" class="animable"></polyline><polyline points="292.25 276.87 292.25 216.54 315.58 216.54 315.58 231.02 326.84 231.02 326.84 210.1 351.78 210.1 351.78 300.2 372.7 300.2 372.7 332.38 389.59 332.38 389.59 282.51 401.66 282.51 401.66 272.05" style="fill: none; stroke: rgb(38, 50, 56); stroke-miterlimit: 10; transform-origin: 346.955px 271.24px;" id="elkwufa2tq0c7" class="animable"></polyline><polyline points="204.56 236.65 204.56 343.65 218.23 343.65 218.23 280.9 237.54 280.9 237.54 333.99 292.25 333.99 292.25 286.53" style="fill: none; stroke: rgb(38, 50, 56); stroke-miterlimit: 10; transform-origin: 248.405px 290.15px;" id="elersbo1xjpoh" class="animable"></polyline><polyline points="161.92 315.49 161.92 183.55 204.56 183.55 204.56 227.8" style="fill: none; stroke: rgb(38, 50, 56); stroke-miterlimit: 10; transform-origin: 183.24px 249.52px;" id="elavr166dwg05" class="animable"></polyline><polyline points="79.06 276.87 79.06 292.16 91.12 292.16 91.12 222.97 139.39 222.97 139.39 329.97 161.92 329.97 161.92 319.51" style="fill: none; stroke: rgb(38, 50, 56); stroke-miterlimit: 10; transform-origin: 120.49px 276.47px;" id="elben855xq2r5" class="animable"></polyline><polyline points="26.76 343.65 44.46 343.65 44.46 243.89 79.06 243.89 79.06 268.83" style="fill: none; stroke: rgb(38, 50, 56); stroke-miterlimit: 10; transform-origin: 52.91px 293.77px;" id="elo82n9swltn" class="animable"></polyline></g></g><g id="freepik--Clouds--inject-54" class="animable animator-active" style="transform-origin: 249.61px 144.46px;"><g id="elem0ztw8650u" class="animable" style="transform-origin: 249.61px 144.46px;"><path d="M457.17,120.8s-6.44-12.87-18.5-11.26c-12.07,1.61-13.68,13.68-16.89,14.48s-10.46-4.02-15.29-1.61c-4.83,2.41-8.04,8.04-8.04,8.04,0,0-6.44-2.41-11.26,0s-7.24,7.24-7.24,7.24h100.56s-.8-12.87-8.04-15.29c-7.24-2.41-12.07,4.83-15.29-1.61Z" style="fill: none; stroke: rgb(38, 50, 56); stroke-miterlimit: 10; transform-origin: 430.23px 123.545px;" id="elm4b8uyymm8s" class="animable"></path><path d="M318.77,167.04s-4.76-9.51-13.68-8.33c-8.92,1.19-10.11,10.11-12.49,10.7-2.38,.59-7.73-2.97-11.3-1.19-3.57,1.78-5.95,5.95-5.95,5.95,0,0-4.76-1.78-8.33,0-3.57,1.78-5.35,5.35-5.35,5.35h74.34s-.59-9.52-5.95-11.3c-5.35-1.78-8.92,3.57-11.3-1.19Z" style="fill: none; stroke: rgb(38, 50, 56); stroke-miterlimit: 10; transform-origin: 298.84px 169.064px;" id="el3y99r2r3b3r" class="animable"></path><path d="M66.92,132.78s-4.02-8.03-11.55-7.03c-7.53,1-8.54,8.54-10.55,9.04-2.01,.5-6.53-2.51-9.54-1-3.01,1.51-5.02,5.02-5.02,5.02,0,0-4.02-1.51-7.03,0-3.01,1.51-4.52,4.52-4.52,4.52h62.77s-.5-8.03-5.02-9.54c-4.52-1.51-7.53,3.01-9.54-1Z" style="fill: none; stroke: rgb(38, 50, 56); stroke-miterlimit: 10; transform-origin: 50.095px 134.497px;" id="eloht7fqkb0e" class="animable"></path></g></g><g id="freepik--Crane--inject-54" class="animable" style="transform-origin: 202.305px 250.52px;"><g id="el1uckc0cu13h" class="animable" style="transform-origin: 202.305px 250.52px;"><polyline points="320.8 87.41 256.99 38.31 368.58 87.81" style="fill: none; stroke: rgb(38, 50, 56); stroke-linecap: round; stroke-linejoin: round; transform-origin: 312.785px 63.06px;" id="elllxz6s4eka" class="animable"></polyline><g id="el73w76epzuqa" class="animable" style="transform-origin: 107.105px 218.985px;"><line x1="100.1" y1="324.35" x2="100.1" y2="113.62" style="fill: none; stroke: rgb(38, 50, 56); stroke-linecap: round; stroke-linejoin: round; transform-origin: 100.1px 218.985px;" id="elle9y6aed5r" class="animable"></line><line x1="114.11" y1="324.35" x2="114.11" y2="113.62" style="fill: none; stroke: rgb(38, 50, 56); stroke-linecap: round; stroke-linejoin: round; transform-origin: 114.11px 218.985px;" id="elvyt182qkxc" class="animable"></line></g><rect x="88.48" y="90.36" width="36.42" height="17.99" style="fill: rgb(38, 50, 56); stroke: rgb(38, 50, 56); stroke-linecap: round; stroke-linejoin: round; transform-origin: 106.69px 99.355px;" id="elvun702p3syd" class="animable"></rect><polygon points="121.26 118.88 92.12 118.88 88.48 108.35 124.9 108.35 121.26 118.88" style="fill: rgb(38, 50, 56); stroke: rgb(38, 50, 56); stroke-linecap: round; stroke-linejoin: round; transform-origin: 106.69px 113.615px;" id="elc6kvr4awp1f" class="animable"></polygon><polyline points="69.76 74.3 256.99 38.31 177.15 74.3" style="fill: none; stroke: rgb(38, 50, 56); stroke-linecap: round; stroke-linejoin: round; transform-origin: 163.375px 56.305px;" id="elcitukpx9ml" class="animable"></polyline><g id="elk5omnjfat3r" class="animable" style="transform-origin: 257.11px 243.76px;"><polyline points="246.15 89.62 263.72 75.24 252.48 63.43 259.51 52.05" style="fill: none; stroke: rgb(38, 50, 56); stroke-linecap: round; stroke-linejoin: round; stroke-width: 3px; transform-origin: 254.935px 70.835px;" id="elo8u65bf2ez9" class="animable"></polyline><polygon points="268.07 449.21 246.15 449.21 246.15 89.62 256.99 38.31 268.07 89.62 268.07 449.21" style="fill: none; stroke: rgb(38, 50, 56); stroke-linecap: round; stroke-linejoin: round; stroke-width: 3px; transform-origin: 257.11px 243.76px;" id="elwy0yem9x9ya" class="animable"></polygon><polyline points="268.07 149.26 246.3 171.03 266.51 171.03" style="fill: none; stroke: rgb(38, 50, 56); stroke-linecap: round; stroke-linejoin: round; stroke-width: 3px; transform-origin: 257.185px 160.145px;" id="ell02yjvgdbkd" class="animable"></polyline><polyline points="268.07 129.38 246.3 151.15 266.51 151.15" style="fill: none; stroke: rgb(38, 50, 56); stroke-linecap: round; stroke-linejoin: round; stroke-width: 3px; transform-origin: 257.185px 140.265px;" id="eln9w04xgkslq" class="animable"></polyline><polyline points="268.07 109.5 246.3 131.26 266.51 131.26" style="fill: none; stroke: rgb(38, 50, 56); stroke-linecap: round; stroke-linejoin: round; stroke-width: 3px; transform-origin: 257.185px 120.38px;" id="elj0pzmcq724a" class="animable"></polyline><polyline points="268.07 89.62 246.3 111.38 266.51 111.38" style="fill: none; stroke: rgb(38, 50, 56); stroke-linecap: round; stroke-linejoin: round; stroke-width: 3px; transform-origin: 257.185px 100.5px;" id="el07y990u12z9h" class="animable"></polyline><polyline points="268.07 172.64 246.3 194.4 266.51 194.4" style="fill: none; stroke: rgb(38, 50, 56); stroke-linecap: round; stroke-linejoin: round; stroke-width: 3px; transform-origin: 257.185px 183.52px;" id="el9lf8v8g1v1j" class="animable"></polyline><polyline points="268.07 196.02 246.3 217.78 266.51 217.78" style="fill: none; stroke: rgb(38, 50, 56); stroke-linecap: round; stroke-linejoin: round; stroke-width: 3px; transform-origin: 257.185px 206.9px;" id="elf3pkld1v63m" class="animable"></polyline><polyline points="268.07 219.4 246.3 241.16 266.51 241.16" style="fill: none; stroke: rgb(38, 50, 56); stroke-linecap: round; stroke-linejoin: round; stroke-width: 3px; transform-origin: 257.185px 230.28px;" id="elfztoz1tmoy" class="animable"></polyline><polyline points="268.07 242.78 246.3 264.54 266.51 264.54" style="fill: none; stroke: rgb(38, 50, 56); stroke-linecap: round; stroke-linejoin: round; stroke-width: 3px; transform-origin: 257.185px 253.66px;" id="el3rqf07t16go" class="animable"></polyline><polyline points="268.07 266.16 246.3 287.92 266.51 287.92" style="fill: none; stroke: rgb(38, 50, 56); stroke-linecap: round; stroke-linejoin: round; stroke-width: 3px; transform-origin: 257.185px 277.04px;" id="elcoqjnx864uv" class="animable"></polyline><polyline points="268.07 289.54 246.3 311.3 266.51 311.3" style="fill: none; stroke: rgb(38, 50, 56); stroke-linecap: round; stroke-linejoin: round; stroke-width: 3px; transform-origin: 257.185px 300.42px;" id="elrrydkei0x5h" class="animable"></polyline><polyline points="268.07 312.91 246.3 334.68 266.51 334.68" style="fill: none; stroke: rgb(38, 50, 56); stroke-linecap: round; stroke-linejoin: round; stroke-width: 3px; transform-origin: 257.185px 323.795px;" id="elw7y8fg0xfuf" class="animable"></polyline><polyline points="268.07 336.29 246.3 358.06 266.51 358.06" style="fill: none; stroke: rgb(38, 50, 56); stroke-linecap: round; stroke-linejoin: round; stroke-width: 3px; transform-origin: 257.185px 347.175px;" id="elbcs07k19faw" class="animable"></polyline><polyline points="268.07 359.67 246.3 381.43 266.51 381.43" style="fill: none; stroke: rgb(38, 50, 56); stroke-linecap: round; stroke-linejoin: round; stroke-width: 3px; transform-origin: 257.185px 370.55px;" id="el5xfrwvuc3vf" class="animable"></polyline><polyline points="268.07 383.05 246.3 404.81 266.51 404.81" style="fill: none; stroke: rgb(38, 50, 56); stroke-linecap: round; stroke-linejoin: round; stroke-width: 3px; transform-origin: 257.185px 393.93px;" id="elcypmu42ir6m" class="animable"></polyline><polyline points="268.07 406.43 246.3 428.19 266.51 428.19" style="fill: none; stroke: rgb(38, 50, 56); stroke-linecap: round; stroke-linejoin: round; stroke-width: 3px; transform-origin: 257.185px 417.31px;" id="eljhrpldw657" class="animable"></polyline></g><rect x="218.42" y="445.56" width="77.31" height="12.15" style="fill: rgb(38, 50, 56); transform-origin: 257.075px 451.635px;" id="eleoz7rry1jh" class="animable"></rect><rect x="191.66" y="455.91" width="130.83" height="12.44" style="fill: rgb(225, 223, 221); stroke: rgb(38, 50, 56); stroke-linecap: round; stroke-linejoin: round; transform-origin: 257.075px 462.13px;" id="elvkfbqx4tes" class="animable"></rect><rect x="243.3" y="125.82" width="27.61" height="24.06" style="fill: rgb(225, 223, 221); stroke: rgb(38, 50, 56); stroke-linecap: round; stroke-linejoin: round; transform-origin: 257.105px 137.85px;" id="els5uctagt6a" class="animable"></rect><g id="elr5j1v48tjy" class="animable" style="transform-origin: 257.11px 160.045px;"><rect x="238.56" y="160.04" width="37.1" height="9.84" style="fill: rgb(225, 223, 221); stroke: rgb(38, 50, 56); stroke-linecap: round; stroke-linejoin: round; transform-origin: 257.11px 164.96px;" id="el7xh4iy85mhc" class="animable"></rect><polygon points="275.79 160.05 238.43 160.05 243.3 150.21 270.91 150.21 275.79 160.05" style="fill: rgb(225, 223, 221); stroke: rgb(38, 50, 56); stroke-linecap: round; stroke-linejoin: round; transform-origin: 257.11px 155.13px;" id="el2efcb9u4o6o" class="animable"></polygon></g><path d="M272.58,126.22h-29.28v-27.12h31.24c1.74,0,3.11,1.5,2.95,3.23l-1.96,21.21c-.14,1.52-1.42,2.69-2.95,2.69Z" style="fill: rgb(225, 223, 221); stroke: rgb(38, 50, 56); stroke-linecap: round; stroke-linejoin: round; transform-origin: 260.401px 112.665px;" id="elwtjwnqufxb9" class="animable"></path><path d="M255.13,104.95v15.75c0,.61,.46,1.13,1.07,1.2l10.42,1.13c2.77,.3,5.18-1.87,5.18-4.65v-13.42c0-.66-.54-1.2-1.2-1.2h-14.27c-.66,0-1.2,.54-1.2,1.2Z" style="fill: rgb(38, 50, 56); stroke: rgb(38, 50, 56); stroke-linecap: round; stroke-linejoin: round; transform-origin: 263.465px 113.409px;" id="elq347sa9eibe" class="animable"></path><polyline points="330.09 91.16 36.03 91.16 48.4 75.42 230.01 75.42 237.88 89.48" style="fill: none; stroke: rgb(38, 50, 56); stroke-linecap: round; stroke-linejoin: round; stroke-width: 3px; transform-origin: 183.06px 83.29px;" id="elucl2d9f763" class="animable"></polyline><g id="elp6csm9ev2bs" class="animable" style="transform-origin: 139.205px 83.01px;"><polyline points="48.4 75.42 48.4 90.6 63.02 75.98" style="fill: none; stroke: rgb(38, 50, 56); stroke-linecap: round; stroke-linejoin: round; stroke-width: 3px; transform-origin: 55.71px 83.01px;" id="elw59rbdsboy" class="animable"></polyline><polyline points="63.58 75.42 63.58 90.6 78.2 75.98" style="fill: none; stroke: rgb(38, 50, 56); stroke-linecap: round; stroke-linejoin: round; stroke-width: 3px; transform-origin: 70.89px 83.01px;" id="elngbok7wjoao" class="animable"></polyline><polyline points="78.76 75.42 78.76 90.6 93.38 75.98" style="fill: none; stroke: rgb(38, 50, 56); stroke-linecap: round; stroke-linejoin: round; stroke-width: 3px; transform-origin: 86.07px 83.01px;" id="elwd1ki7joteo" class="animable"></polyline><polyline points="93.94 75.42 93.94 90.6 108.56 75.98" style="fill: none; stroke: rgb(38, 50, 56); stroke-linecap: round; stroke-linejoin: round; stroke-width: 3px; transform-origin: 101.25px 83.01px;" id="eluffojqupz4" class="animable"></polyline><polyline points="109.12 75.42 109.12 90.6 123.74 75.98" style="fill: none; stroke: rgb(38, 50, 56); stroke-linecap: round; stroke-linejoin: round; stroke-width: 3px; transform-origin: 116.43px 83.01px;" id="elupk2035jkr" class="animable"></polyline><polyline points="124.3 75.42 124.3 90.6 138.92 75.98" style="fill: none; stroke: rgb(38, 50, 56); stroke-linecap: round; stroke-linejoin: round; stroke-width: 3px; transform-origin: 131.61px 83.01px;" id="elm7a3979eqkm" class="animable"></polyline><polyline points="139.48 75.42 139.48 90.6 154.1 75.98" style="fill: none; stroke: rgb(38, 50, 56); stroke-linecap: round; stroke-linejoin: round; stroke-width: 3px; transform-origin: 146.79px 83.01px;" id="el6m4ukim8kgu" class="animable"></polyline><polyline points="154.66 75.42 154.66 90.6 169.28 75.98" style="fill: none; stroke: rgb(38, 50, 56); stroke-linecap: round; stroke-linejoin: round; stroke-width: 3px; transform-origin: 161.97px 83.01px;" id="elsa69l9nycj7" class="animable"></polyline><polyline points="169.84 75.42 169.84 90.6 184.46 75.98" style="fill: none; stroke: rgb(38, 50, 56); stroke-linecap: round; stroke-linejoin: round; stroke-width: 3px; transform-origin: 177.15px 83.01px;" id="elktzerez9y4j" class="animable"></polyline><polyline points="185.03 75.42 185.03 90.6 199.64 75.98" style="fill: none; stroke: rgb(38, 50, 56); stroke-linecap: round; stroke-linejoin: round; stroke-width: 3px; transform-origin: 192.335px 83.01px;" id="el5akr2cj8xjq" class="animable"></polyline><polyline points="200.21 75.42 200.21 90.6 214.82 75.98" style="fill: none; stroke: rgb(38, 50, 56); stroke-linecap: round; stroke-linejoin: round; stroke-width: 3px; transform-origin: 207.515px 83.01px;" id="el9e30z6f3d4h" class="animable"></polyline><polyline points="215.39 75.42 215.39 90.6 230.01 75.98" style="fill: none; stroke: rgb(38, 50, 56); stroke-linecap: round; stroke-linejoin: round; stroke-width: 3px; transform-origin: 222.7px 83.01px;" id="elicpsyupb1gd" class="animable"></polyline></g><circle cx="256.99" cy="38.31" r="5.62" style="fill: rgb(225, 223, 221); stroke: rgb(38, 50, 56); stroke-linecap: round; stroke-linejoin: round; transform-origin: 256.99px 38.31px;" id="el04tdsgj7g94w" class="animable"></circle><rect x="315.83" y="87.81" width="52.75" height="6.4" style="fill: rgb(225, 223, 221); stroke: rgb(38, 50, 56); stroke-linecap: round; stroke-linejoin: round; transform-origin: 342.205px 91.01px;" id="elpfl2s2vvjb" class="animable"></rect><rect x="325.01" y="94.1" width="34.4" height="6.4" style="fill: rgb(225, 223, 221); stroke: rgb(38, 50, 56); stroke-linecap: round; stroke-linejoin: round; transform-origin: 342.21px 97.3px;" id="elfpxs7x7u3xe" class="animable"></rect><rect x="328.66" y="100.51" width="15.29" height="19.2" style="fill: rgb(148, 148, 148); stroke: rgb(38, 50, 56); stroke-linecap: round; stroke-linejoin: round; transform-origin: 336.305px 110.11px;" id="elecvqhklqncm" class="animable"></rect><polyline points="273.3 89.48 273.3 72.05 366.63 72.05 366.63 87.81" style="fill: none; stroke: rgb(38, 50, 56); stroke-linecap: round; stroke-linejoin: round; transform-origin: 319.965px 80.765px;" id="elvbtl4xwqn7" class="animable"></polyline><line x1="315.83" y1="87.81" x2="315.83" y2="72" style="fill: none; stroke: rgb(38, 50, 56); stroke-linecap: round; stroke-linejoin: round; transform-origin: 315.83px 79.905px;" id="eldiljuec042j" class="animable"></line><line x1="301.4" y1="90.5" x2="301.4" y2="72" style="fill: none; stroke: rgb(38, 50, 56); stroke-linecap: round; stroke-linejoin: round; transform-origin: 301.4px 81.25px;" id="elext9i3hqvz7" class="animable"></line><line x1="286.61" y1="90.5" x2="286.61" y2="72" style="fill: none; stroke: rgb(38, 50, 56); stroke-linecap: round; stroke-linejoin: round; transform-origin: 286.61px 81.25px;" id="el3t7brmzpim5" class="animable"></line><line x1="333.59" y1="87.81" x2="333.59" y2="72" style="fill: none; stroke: rgb(38, 50, 56); stroke-linecap: round; stroke-linejoin: round; transform-origin: 333.59px 79.905px;" id="elaa1yrh6ny8v" class="animable"></line><line x1="351.35" y1="87.81" x2="351.35" y2="72" style="fill: none; stroke: rgb(38, 50, 56); stroke-linecap: round; stroke-linejoin: round; transform-origin: 351.35px 79.905px;" id="elv7y6m9dts1q" class="animable"></line><line x1="273.81" y1="80.88" x2="365.92" y2="80.88" style="fill: none; stroke: rgb(38, 50, 56); stroke-linecap: round; stroke-linejoin: round; transform-origin: 319.865px 80.88px;" id="elhkulmyiwkh" class="animable"></line><g id="elox46cr0qe3" class="animable" style="transform-origin: 107.03px 94.57px;"><rect x="93.22" y="87.64" width="27.61" height="13.86" style="fill: rgb(225, 223, 221); stroke: rgb(38, 50, 56); stroke-linecap: round; stroke-linejoin: round; transform-origin: 107.025px 94.57px;" id="elqfqk9xib27" class="animable"></rect><g id="elsa5yfmx75ak" class="animable" style="transform-origin: 107.03px 94.565px;"><polygon points="97.86 87.64 93.61 87.64 107.47 101.49 111.71 101.49 97.86 87.64" style="fill: rgb(38, 50, 56); transform-origin: 102.66px 94.565px;" id="el3rqzr3m66ge" class="animable"></polygon><polygon points="98.69 101.49 102.94 101.49 93.22 91.78 93.22 96.02 98.69 101.49" style="fill: rgb(38, 50, 56); transform-origin: 98.08px 96.635px;" id="el6p3rysc10q" class="animable"></polygon><polygon points="106.63 87.64 102.39 87.64 116.25 101.49 120.49 101.49 106.63 87.64" style="fill: rgb(38, 50, 56); transform-origin: 111.44px 94.565px;" id="el7g288gez2lx" class="animable"></polygon><polygon points="115.41 87.64 111.17 87.64 120.84 97.31 120.84 93.06 115.41 87.64" style="fill: rgb(38, 50, 56); transform-origin: 116.005px 92.475px;" id="eltqa8f624pkr" class="animable"></polygon></g></g><g id="el2fndpnfbid3" class="animable" style="transform-origin: 107.75px 340.551px;"><g id="elf4owq2kehx" class="animable" style="transform-origin: 108.786px 348.046px;"><path d="M107.35,341.22v2.81c0,2.15-2.54,4.36-3.67,6.01-3.19,4.66-1.29,13.3,5.28,13.42,5.61,.1,6.95-5.25,6.29-9.78" style="fill: none; stroke: rgb(38, 50, 56); stroke-linecap: round; stroke-linejoin: round; stroke-width: 3px; transform-origin: 108.786px 352.341px;" id="elfprclq40r1t" class="animable"></path><path d="M107.35,332.63v8.6" style="fill: none; stroke: rgb(38, 50, 56); stroke-linecap: round; stroke-linejoin: round; stroke-width: 6px; transform-origin: 107.35px 336.93px;" id="elxzs4ttgxqbj" class="animable"></path></g><g id="elr423em3f72l" class="animable" style="transform-origin: 107.028px 327.18px;"><g id="el3jwy0b4sklp"><rect x="97.49" y="320.25" width="19.07" height="13.86" style="fill: rgb(225, 223, 221); stroke: rgb(38, 50, 56); stroke-linecap: round; stroke-linejoin: round; transform-origin: 107.025px 327.18px; transform: rotate(90deg);" class="animable"></rect></g><g id="elo5l6lafg0bh" class="animable" style="transform-origin: 107.03px 327.18px;"><polygon points="113.96 320.84 113.96 317.91 100.1 327.48 100.1 330.41 113.96 320.84" style="fill: rgb(38, 50, 56); transform-origin: 107.03px 324.16px;" id="el0y5jv51mindm" class="animable"></polygon><polygon points="100.1 321.42 100.1 324.35 109.81 317.64 105.57 317.64 100.1 321.42" style="fill: rgb(38, 50, 56); transform-origin: 104.955px 320.995px;" id="elpe9d7xj53ii" class="animable"></polygon><polygon points="113.96 326.91 113.96 323.98 100.1 333.55 100.1 336.48 113.96 326.91" style="fill: rgb(38, 50, 56); transform-origin: 107.03px 330.23px;" id="elhmnyo5gp12" class="animable"></polygon><polygon points="113.96 332.97 113.96 330.04 104.29 336.72 108.53 336.72 113.96 332.97" style="fill: rgb(38, 50, 56); transform-origin: 109.125px 333.38px;" id="elc3krf3xmoz" class="animable"></polygon></g></g></g><path d="M106.69,125.03h0c-1.58,0-2.85-1.28-2.85-2.85v-4.61h5.7v4.61c0,1.58-1.28,2.85-2.85,2.85Z" style="fill: rgb(225, 223, 221); stroke: rgb(38, 50, 56); stroke-linecap: round; stroke-linejoin: round; transform-origin: 106.69px 121.3px;" id="elq2w9xbz7cz" class="animable"></path></g></g><defs>     <filter id="active" height="200%">         <feMorphology in="SourceAlpha" result="DILATED" operator="dilate" radius="2"></feMorphology>                <feFlood flood-color="#32DFEC" flood-opacity="1" result="PINK"></feFlood>        <feComposite in="PINK" in2="DILATED" operator="in" result="OUTLINE"></feComposite>        <feMerge>            <feMergeNode in="OUTLINE"></feMergeNode>            <feMergeNode in="SourceGraphic"></feMergeNode>        </feMerge>    </filter>    <filter id="hover" height="200%">        <feMorphology in="SourceAlpha" result="DILATED" operator="dilate" radius="2"></feMorphology>                <feFlood flood-color="#ff0000" flood-opacity="0.5" result="PINK"></feFlood>        <feComposite in="PINK" in2="DILATED" operator="in" result="OUTLINE"></feComposite>        <feMerge>            <feMergeNode in="OUTLINE"></feMergeNode>            <feMergeNode in="SourceGraphic"></feMergeNode>        </feMerge>            <feColorMatrix type="matrix" values="0   0   0   0   0                0   1   0   0   0                0   0   0   0   0                0   0   0   1   0 "></feColorMatrix>    </filter></defs></svg>